<svg width="84" height="84" viewBox="0 0 84 84" fill="none" xmlns="http://www.w3.org/2000/svg">
<path d="M41.86 83.72C64.9786 83.72 83.72 64.9786 83.72 41.86C83.72 18.7414 64.9786 0 41.86 0C18.7414 0 0 18.7414 0 41.86C0 64.9786 18.7414 83.72 41.86 83.72Z" fill="url(#paint0_linear_9:73)"/>
<path d="M43.86 18C39.75 18 36.41 21.34 36.41 25.45V33.25L31 33.32V41.07L36.41 41V66.14H45.68V41H53.13L53.95 33.25H45.68C45.68 31.54 45.68 29.65 45.68 27.84C45.68 26.68 46.62 25.75 47.77 25.75H53.95V18H43.86Z" fill="#F5F5F5"/>
<defs>
<linearGradient id="paint0_linear_9:73" x1="0" y1="41.8633" x2="83.7266" y2="41.8633" gradientUnits="userSpaceOnUse">
<stop stop-color="#0497D6"/>
<stop offset="1" stop-color="#13BAE5"/>
</linearGradient>
</defs>
</svg>
