<svg width="193" height="193" viewBox="0 0 193 193" fill="none" xmlns="http://www.w3.org/2000/svg">
<path d="M96.4885 192.977C149.778 192.977 192.977 149.778 192.977 96.4885C192.977 43.1994 149.778 0 96.4885 0C43.1994 0 0 43.1994 0 96.4885C0 149.778 43.1994 192.977 96.4885 192.977Z" fill="url(#paint0_linear_5:35)"/>
<path d="M108.106 91.9461L119.7 80.9973L68.1136 52.6454C67.3529 52.2305 66.5462 52.0461 65.7625 52L108.106 91.9461Z" fill="#00F076"/>
<path d="M60.6915 54.7891C60.2536 55.5498 60 56.4487 60 57.4399V134.036C60 135.027 60.2536 135.903 60.6915 136.687L104.095 95.7495L60.6915 54.7891Z" fill="#00D2FF"/>
<path d="M137.772 90.9319L124.771 83.7863L112.117 95.7264L124.771 107.666L137.772 100.521C141.552 98.4463 141.552 93.0064 137.772 90.9319Z" fill="#FFD200"/>
<path d="M108.106 99.5297L65.7625 139.476C66.5462 139.43 67.3529 139.268 68.1136 138.83L119.7 110.479L108.106 99.5297Z" fill="#FD3945"/>
<defs>
<linearGradient id="paint0_linear_5:35" x1="0" y1="96.4961" x2="192.992" y2="96.4961" gradientUnits="userSpaceOnUse">
<stop stop-color="#009DDC"/>
<stop offset="0.5046" stop-color="#1D7BB6"/>
<stop offset="1" stop-color="#13BEE8"/>
</linearGradient>
</defs>
</svg>
