<svg width="84" height="84" viewBox="0 0 84 84" fill="none" xmlns="http://www.w3.org/2000/svg">
<path d="M41.86 83.72C64.9786 83.72 83.72 64.9786 83.72 41.86C83.72 18.7414 64.9786 0 41.86 0C18.7414 0 0 18.7414 0 41.86C0 64.9786 18.7414 83.72 41.86 83.72Z" fill="url(#paint0_linear_9:72)"/>
<path d="M53.19 62.85H31.66C25.22 62.85 20 57.63 20 51.19V29.66C20 23.22 25.22 18 31.66 18H53.19C59.63 18 64.85 23.22 64.85 29.66V51.19C64.85 57.63 59.63 62.85 53.19 62.85Z" stroke="#F5F5F5" stroke-width="2" stroke-miterlimit="10"/>
<path d="M51.9357 49.9409C57.1921 44.6845 57.1921 36.1622 51.9357 30.9057C46.6793 25.6493 38.1569 25.6493 32.9005 30.9057C27.6441 36.1621 27.6441 44.6845 32.9005 49.9409C38.1569 55.1973 46.6793 55.1973 51.9357 49.9409Z" stroke="#F5F5F5" stroke-width="2" stroke-miterlimit="10"/>
<path d="M59.17 26.48C59.17 27.7 58.18 28.69 56.96 28.69C55.74 28.69 54.75 27.7 54.75 26.48C54.75 25.26 55.74 24.27 56.96 24.27C58.18 24.28 59.17 25.26 59.17 26.48Z" fill="#F5F5F5"/>
<defs>
<linearGradient id="paint0_linear_9:72" x1="0" y1="41.8633" x2="83.7266" y2="41.8633" gradientUnits="userSpaceOnUse">
<stop stop-color="#0597D5"/>
<stop offset="0.5046" stop-color="#1C7BB6"/>
<stop offset="1" stop-color="#13B8E4"/>
</linearGradient>
</defs>
</svg>
