<svg width="84" height="84" viewBox="0 0 84 84" fill="none" xmlns="http://www.w3.org/2000/svg">
<path d="M41.86 83.72C64.9786 83.72 83.72 64.9786 83.72 41.86C83.72 18.7414 64.9786 0 41.86 0C18.7414 0 0 18.7414 0 41.86C0 64.9786 18.7414 83.72 41.86 83.72Z" fill="url(#paint0_linear_9:74)"/>
<path d="M64.24 27.6C64.24 27.6 62.08 29.13 59.55 28.62C59.55 28.62 63.05 26.46 63.23 23C61.96 26.66 57.46 26.31 57.46 26.31L57.48 26.36C55 23.32 51.29 23.29 49.97 23.33C48.03 23.39 40.63 24.23 41.37 35.52C41.37 35.52 27.91 35.3 21.19 24.76C18.95 32.2 24.52 37.13 24.52 37.13C21.79 37.72 19.9 36.07 19.9 36.07C21.31 43.81 28.26 45.39 28.26 45.39C25.77 46.77 22.71 45.82 22.71 45.82C25.06 51.88 32.68 52.27 32.68 52.27C28.38 57.47 19 57.47 19 57.47C27.19 62.2 59.85 63.84 59.85 34.63C59.85 33.73 59.78 32.92 59.69 32.15L59.72 32.22C59.7 32.2 63.15 30.9 64.24 27.6Z" fill="#F5F5F5"/>
<defs>
<linearGradient id="paint0_linear_9:74" x1="0" y1="41.8633" x2="83.7266" y2="41.8633" gradientUnits="userSpaceOnUse">
<stop stop-color="#0A90CD"/>
<stop offset="1" stop-color="#15AEDC"/>
</linearGradient>
</defs>
</svg>
